<?xml version="1.0" encoding="utf-8"?>
<!-- Generator: Adobe Illustrator 27.2.0, SVG Export Plug-In . SVG Version: 6.00 Build 0)  -->
<svg version="1.1" id="Layer_1" xmlns="http://www.w3.org/2000/svg" xmlns:xlink="http://www.w3.org/1999/xlink" x="0px" y="0px"
	 viewBox="0 0 348.6 93.6" style="enable-background:new 0 0 348.6 93.6;" xml:space="preserve">
<g>
	<path d="M151.3,68.3c5.3,0,9.6-1.9,12.5-5.4l-4.5-4.1c-2,2.4-4.6,3.6-7.6,3.6c-5.6,0-9.7-4-9.7-9.7s4-9.7,9.7-9.7
		c3,0,5.6,1.2,7.6,3.5l4.5-4.1c-2.8-3.4-7.2-5.3-12.4-5.3c-9.4,0-16.4,6.5-16.4,15.6S142,68.3,151.3,68.3L151.3,68.3z M203.8,67.8
		l-6.8-9.7c3.9-1.7,6.2-5,6.2-9.5c0-6.8-5-10.9-13.1-10.9h-13v30.2h7v-8.4h6.1h0.3l5.8,8.4h7.5V67.8z M196.1,48.6
		c0,3.3-2.2,5.2-6.4,5.2H184V43.3h5.7C194,43.3,196.1,45.3,196.1,48.6L196.1,48.6z M239.8,67.8h7.3l-13.5-30.2h-6.9l-13.4,30.2h7.2
		l2.7-6.5h14L239.8,67.8L239.8,67.8z M225.4,56l4.8-11.5L235,56H225.4L225.4,56z M263.7,67.8h7V43.3h9.7v-5.7H254v5.7h9.7V67.8
		L263.7,67.8z M298.9,62.6v-4.9h11.3v-5h-11.3v-4.5h12.8V43h-19.5v24.8h19.9v-5.2H298.9L298.9,62.6z M341.3,67.8h7.3l-5.5-7.8
		c3.2-1.5,5-4.2,5-7.8c0-5.7-4.3-9.1-11.2-9.1h-11.3v24.8h6.8v-6.6h4.2L341.3,67.8L341.3,67.8z M341.3,52.2c0,2.4-1.6,3.8-4.8,3.8
		h-4v-7.7h4C339.7,48.3,341.3,49.7,341.3,52.2L341.3,52.2z"/>
	<path d="M89.9,15C79.8,5.2,66.5-0.2,52.5,0c-0.1,0-0.3,0-0.4,0C23.3,0.5,0,24.3,0,53c0,15.1,6.6,29.6,17.9,39.6
		c0.6,0.5,1.3,0.8,2,0.7s1.4-0.4,1.9-1c0.9-1.1,0.7-2.8-0.3-3.7C11.1,79.4,5.2,66.2,5.4,52.3c0.2-12.2,5-23.8,13.5-32.5
		c8.6-8.8,20-13.9,32.2-14.3C64,5,76.3,9.7,85.7,18.6c9.4,9,14.6,21,14.7,34c0.1,13.8-5.8,27-16.2,36.1c-1.1,1-1.2,2.6-0.3,3.8
		c0.5,0.6,1.1,0.9,1.9,1c0.1,0,0.2,0,0.2,0c0.6,0,1.2-0.2,1.7-0.7c11.6-10.2,18.2-24.9,18.1-40.3C105.8,38.3,100.1,25,89.9,15
		L89.9,15z"/>
	<path d="M93.7,67.8c4-11.1,3.4-23.1-1.7-33.7c-5.2-10.7-14.2-18.6-25.4-22.3c-10.5-3.5-22-2.7-32.4,2.4s-18.2,13.5-22,24
		c-4.1,11.3-3.3,24,2.2,34.8c0.3,0.7,1,1.2,1.7,1.4s1.5,0.1,2.1-0.3c1.2-0.7,1.7-2.3,1-3.5c-4.9-9.4-5.6-20.5-2-30.5
		c3.5-9.5,10.4-17.1,19.6-21.4c9.2-4.3,19.5-4.8,29-1.3S82.9,27.8,87.2,37c4.3,9.2,4.7,19.5,1.3,29c-3.7,10.3-11.7,18.4-21.9,22.4
		c-1.3,0.5-2,2-1.6,3.4c0.2,0.7,0.7,1.3,1.4,1.6c0.4,0.2,0.8,0.2,1.1,0.2s0.7-0.1,1-0.2C80.3,88.8,89.4,79.5,93.7,67.8L93.7,67.8z"
		/>
	<path d="M78.8,74.7c5.8-6.9,8.5-15.7,7.8-24.7s-5-17.1-11.9-22.9C67.8,21.3,59,18.6,50,19.3s-17.1,5-22.9,11.9
		c-6,7.1-8.7,16.1-7.7,25.4c0.1,0.8,0.5,1.4,1.1,1.9s1.4,0.6,2.1,0.5c1.4-0.3,2.3-1.5,2.2-3c-0.9-8,1.7-16,7.1-22
		c9.4-10.5,26.9-12.2,38.1-3.7c6.3,4.7,10.2,11.6,11.1,19.5c0.9,7.8-1.4,15.5-6.4,21.5c-5.2,6.1-12.7,9.8-20.8,10.1
		c-1.4,0-2.6,1.2-2.6,2.7c0,0.8,0.3,1.5,0.8,2s1.2,0.8,1.9,0.8h0.1C63.6,86.4,72.6,82,78.8,74.7L78.8,74.7z"/>
	<path d="M65,73.9c5.8-3.3,9.8-8.8,11.4-15.3c1.6-6.5,0.4-13.2-3.2-18.8c-3.2-5-8.1-8.6-13.9-10.2c-5.8-1.6-11.8-1-17.2,1.6
		c-6.1,3-10.7,8.5-12.5,15c-0.2,0.8-0.1,1.6,0.3,2.2s1.1,1.1,1.9,1.2c1.3,0.2,2.6-0.6,3-1.9c1.5-5.1,4.9-9.3,9.7-11.7
		c4.1-2.1,8.9-2.5,13.3-1.3c4.5,1.2,8.3,4,10.8,7.9c2.8,4.4,3.7,9.5,2.4,14.6c-1.2,5-4.4,9.2-8.8,11.8c-4.5,2.6-9.8,3.2-14.8,1.7
		c-1.3-0.4-2.8,0.3-3.3,1.6c-0.3,0.7-0.2,1.5,0.1,2.2s1,1.2,1.7,1.4c2.3,0.7,4.7,1,7,1C57.2,77.2,61.3,76.1,65,73.9L65,73.9z"/>
	<path d="M53.8,67.3c7.8-0.5,13.9-7.2,13.7-15c-0.1-3.9-1.7-7.5-4.6-10.2c-2.8-2.7-6.6-4.1-10.5-4c-3.3,0.1-6.4,1.3-9,3.4
		c-0.6,0.5-1,1.3-1,2.1s0.4,1.6,1.1,2.1c1,0.8,2.4,0.7,3.4-0.1c1.6-1.3,3.5-2.1,5.6-2.1c2.5-0.1,5,0.9,6.8,2.7s2.8,4.2,2.7,6.8
		c-0.2,4.6-3.9,8.5-8.5,8.8c-2.5,0.2-4.8-0.6-6.7-2.3c-1-0.9-2.5-0.9-3.5,0l0,0c-0.6,0.5-0.9,1.2-0.9,2s0.3,1.5,0.9,2
		c2.7,2.4,6.1,3.7,9.7,3.7C53.2,67.3,53.5,67.3,53.8,67.3L53.8,67.3z"/>
</g>
</svg>